<?xml version="1.0" encoding="UTF-8"?>
<svg width="32px" height="32px" viewBox="0 0 32 32" version="1.1" xmlns="http://www.w3.org/2000/svg">
    <g stroke="none" stroke-width="1" fill="none" fill-rule="evenodd">
        <path d="M16,2 C23.7319865,2 30,8.26801346 30,16 C30,23.7319865 23.7319865,30 16,30 C13.8155365,30 11.7543367,29.4641463 9.90397012,28.5159041 L4,30 L5.48396373,24.0960299 C4.53585366,22.2456633 4,20.1844635 4,18 C4,10.2680135 10.2680135,4 16,4 Z M16,6 C11.581722,6 8,9.581722 8,14 C8,18.418278 11.581722,22 16,22 C20.418278,22 24,18.418278 24,14 C24,9.581722 20.418278,6 16,6 Z M16,8 C19.3137085,8 22,10.6862915 22,14 C22,17.3137085 19.3137085,20 16,20 C12.6862915,20 10,17.3137085 10,14 C10,10.6862915 12.6862915,8 16,8 Z" fill="#4F46E5" fill-rule="nonzero"></path>
    </g>
</svg> 